<svg width="20" height="20" viewBox="0 0 20 20" fill="none" xmlns="http://www.w3.org/2000/svg">
    <path
        d="M7.19995 12.317L7.87776 11.9733H9.99995C11.9882 11.9733 13.6 10.3615 13.6 8.37331V7.2H14.8C16.3463 7.2 17.6 8.4536 17.6 10V13.1923C17.6 14.1492 16.9215 14.9476 16.0193 15.1327L16.0204 16.4012C16.0206 16.6997 15.7056 16.8933 15.4393 16.7582L12.3169 15.1733H9.99995C8.45355 15.1733 7.19995 13.9197 7.19995 12.3733L7.19995 12.317Z"
        fill="#959EAD" />
    <path
        d="M3.97948 12.4012L3.98074 10.8947C3.02839 10.4341 2.3999 9.46322 2.3999 8.37331V6C2.3999 4.4536 3.6535 3.2 5.1999 3.2H9.9999C11.5463 3.2 12.7999 4.4536 12.7999 6V8.37331C12.7999 9.91971 11.5463 11.1733 9.9999 11.1733H7.68649L4.56036 12.7583C4.29415 12.8933 3.97923 12.6997 3.97948 12.4012Z"
        fill="#959EAD" />
</svg>