<svg width="20" height="20" viewBox="0 0 20 20" fill="none" xmlns="http://www.w3.org/2000/svg">
<path d="M6.76685 7.15684C7.63536 5.91178 8.17749 4.4831 8.39498 2.8657C8.4157 2.71162 8.52381 2.58351 8.67221 2.53718C10.1679 2.07025 11.0182 2.81224 11.0042 4.50413C11.0015 4.83255 10.9864 5.12446 10.9545 5.57092C10.883 6.56816 10.8887 6.8403 10.9994 7.02342C11.1058 7.19946 11.4512 7.25955 12.268 7.1031C12.5258 7.05373 12.7844 6.99777 13.0708 6.93056C13.1972 6.90089 14.1079 6.67674 14.3406 6.62604C14.7847 6.52932 15.1033 6.48839 15.3834 6.50572C16.1424 6.55268 16.5451 7.04563 16.6147 7.99005C16.7373 9.65326 16.3586 12.994 15.9808 14.2246C15.5947 15.482 14.9215 15.9566 13.3054 15.9853C12.2664 16.0037 10.6683 16.0037 8.50372 15.9853C7.95116 15.9723 7.45041 15.8644 7.00499 15.6626C7.13002 15.4014 7.20004 15.1089 7.20004 14.8V8.39999C7.20004 7.93017 7.03804 7.49818 6.76685 7.15684Z" fill="#959EAD"/>
<path d="M4.39995 7.2C3.73721 7.2 3.19995 7.73726 3.19995 8.4V14.8C3.19995 15.4627 3.73721 16 4.39995 16H5.19995C5.86269 16 6.39995 15.4627 6.39995 14.8V8.4C6.39995 7.73726 5.86269 7.2 5.19995 7.2H4.39995Z" fill="#959EAD"/>
</svg>
