<svg width="40" height="40" viewBox="0 0 40 40" fill="none" xmlns="http://www.w3.org/2000/svg">
<path fill-rule="evenodd" clip-rule="evenodd" d="M0 11.2699V5.63494C0 4.07889 0.550145 2.75072 1.65043 1.65043C2.75072 0.550145 4.07889 0 5.63494 0H34.3651C35.9211 0 37.2493 0.550145 38.3496 1.65043C39.4498 2.75072 40 4.07889 40 5.63494V34.3651C40 35.9211 39.4498 37.2493 38.3496 38.3496C37.2493 39.4498 35.9211 40 34.3651 40H5.63494C4.07889 40 2.75072 39.4498 1.65043 38.3496C0.550145 37.2493 0 35.9211 0 34.3651V11.2699Z" fill="#F5F6FA" fill-opacity="0.1"/>
<path d="M28.8086 15.1445C28.5977 14.3008 27.9297 13.6328 27.1211 13.4219C25.6094 13 19.6328 13 19.6328 13C19.6328 13 13.6211 13 12.1094 13.4219C11.3008 13.6328 10.6328 14.3008 10.4219 15.1445C10 16.6211 10 19.7852 10 19.7852C10 19.7852 10 22.9141 10.4219 24.4258C10.6328 25.2695 11.3008 25.9023 12.1094 26.1133C13.6211 26.5 19.6328 26.5 19.6328 26.5C19.6328 26.5 25.6094 26.5 27.1211 26.1133C27.9297 25.9023 28.5977 25.2695 28.8086 24.4258C29.2305 22.9141 29.2305 19.7852 29.2305 19.7852C29.2305 19.7852 29.2305 16.6211 28.8086 15.1445ZM17.6641 22.6328V16.9375L22.6562 19.7852L17.6641 22.6328Z" fill="white"/>
</svg>
